<svg viewBox="0 0 181.18 114.94" xmlns="http://www.w3.org/2000/svg"><defs><style>.cls-1{fill:#d05c33;}.cls-2{fill:#575757;}.cls-3{fill:#848484;}.cls-4{fill:none;}</style></defs><g data-name="Camada 2" id="Camada_2"><g data-name="Camada 1" id="Camada_1-2"><path d="M72.13,77.29c-2,2.08-4.06,4.24-6.2,6.28a8.47,8.47,0,0,1-4.47,2.14A3.23,3.23,0,0,1,57.41,83a38,38,0,0,1-.36-4.33c-1.84,1.9-3.47,3.77-5.31,5.42-2.55,2.3-5.29,4.33-8.81,5-2.56.47-4.36-.53-5.16-3a15.44,15.44,0,0,1-.1-7.61C38.68,73,40.8,67.93,43,62.89a108.35,108.35,0,0,1,7.83-15.51,18.94,18.94,0,0,1,4.92-5.55,7.88,7.88,0,0,1,1.87-1c2.33-.8,4.09.42,4.28,2.87a16.86,16.86,0,0,1-1.73,8A56.48,56.48,0,0,1,49.11,68.46c-1.38,1.45-2.93,2.74-4.38,4.13A2.68,2.68,0,0,0,44,73.65c-.74,2.61-1.47,5.22-2.1,7.85a6.25,6.25,0,0,0,0,2.32c.21,1.31,1,1.88,2.25,1.34a23.41,23.41,0,0,0,5.37-2.86c3.07-2.45,5.9-5.2,8.82-7.85a3.13,3.13,0,0,0,.65-1,31.36,31.36,0,0,1,7.8-10.74,13.33,13.33,0,0,1,6.11-3.3A4.29,4.29,0,0,1,78,62a1.58,1.58,0,0,0,1,.76c1.78.31,2.53,1.42,2,3.22-.4,1.24-1,2.42-1.38,3.65-.89,2.83-1.72,5.68-2.56,8.53a4.09,4.09,0,0,0-.15.76c-.12,1.35.47,1.82,1.75,1.31a11.16,11.16,0,0,0,2.15-1.16A69,69,0,0,0,95.28,64.7a26.91,26.91,0,0,0,1.64-3.16,7,7,0,0,1,1.42-1.81,2,2,0,0,1,2.5-.09,1.71,1.71,0,0,1,.58,2.19c-1.14,2.91-2.32,5.8-3.49,8.68-.36.89-.76,1.77-1.21,2.8,2-2.52,3.84-5,5.88-7.23a66.13,66.13,0,0,1,6.45-6.3,12.38,12.38,0,0,1,4.42-2.23c2.56-.76,4.39.92,4,3.57a28.92,28.92,0,0,1-1.33,4.59,38.52,38.52,0,0,0-1.37,4.22c.82-1.08,1.62-2.17,2.48-3.22,2.72-3.3,5.38-6.67,9-9A9.39,9.39,0,0,1,129,56.57c2.53-.59,4.28.86,3.93,3.44a37.52,37.52,0,0,1-1.56,6c-.9,2.94-2,5.83-2.86,8.78-.38,1.28.23,1.9,1.53,1.65a9.44,9.44,0,0,0,3-1A28.35,28.35,0,0,0,140.87,69a10,10,0,0,0,1.23-2.22,27.59,27.59,0,0,1,9.11-11.2,11.55,11.55,0,0,1,4.06-1.69,3.21,3.21,0,0,1,4,3.42c-.08,3.15-1.83,5.49-3.94,7.62A18.71,18.71,0,0,1,147,69.67c-.79.22-1.31.61-1.4,1.36a12.54,12.54,0,0,0-.1,3.4c.21,1.3,1.52,2,3.07,2.08,2.36,0,4.18-1.26,5.91-2.59a35.12,35.12,0,0,0,7.84-8.47c.2-.31.63-.47,1-.7.08.41.32.89.2,1.23a11.47,11.47,0,0,1-1.21,2.49c-3,4.38-6.33,8.36-11.15,10.82-2,1-4.07,1.68-6.33,1a6.22,6.22,0,0,1-4.4-5.72c0-.55-.06-1.1-.1-1.79-1.13,1.12-2.14,2.17-3.2,3.17a20.13,20.13,0,0,1-6.56,4.15c-1.84.71-3.8,1.29-5.52,0s-1.85-3.57-1.43-5.55a68.25,68.25,0,0,1,2.18-7.23c.61-1.79,1.4-3.52,2-5.3a4.38,4.38,0,0,0,.07-1.36c-.48.09-1.07,0-1.41.31a34.89,34.89,0,0,0-4,3.4A82.05,82.05,0,0,0,112,78a14,14,0,0,1-1.48,2.08,2.27,2.27,0,0,1-2.82.67c-1.12-.62-.93-1.66-.62-2.56.85-2.45,1.8-4.88,2.74-7.3,1-2.63,2.08-5.25,3.12-7.87a1.76,1.76,0,0,0,.2-.64c0-.35.07-.89-.12-1a1.33,1.33,0,0,0-1.12-.05,11.42,11.42,0,0,0-2.07,1.3A54.2,54.2,0,0,0,100.22,73c-2.11,2.78-4,5.69-6.06,8.53a10.06,10.06,0,0,1-1.28,1.54,2.25,2.25,0,0,1-2.6.32,1.82,1.82,0,0,1-1.21-2,30,30,0,0,1,1.21-4.26,48.92,48.92,0,0,0,1.64-4.83c-1.18,1.31-2.35,2.64-3.55,3.93a34.61,34.61,0,0,1-8.51,7,16.41,16.41,0,0,1-3.18,1.32,3.1,3.1,0,0,1-4.14-2A11.75,11.75,0,0,1,72,79.34,12.78,12.78,0,0,1,72.13,77.29ZM61.85,79.88c.27,1.29,1,1.88,2.07,1.32a8.71,8.71,0,0,0,2.55-1.94c2.3-2.71,4.46-5.54,6.73-8.28a13.45,13.45,0,0,0,3-6,1.81,1.81,0,0,0-2-2.3,4.68,4.68,0,0,0-1.94.73A23.32,23.32,0,0,0,64,73.82C63.1,75.77,62.55,77.86,61.85,79.88ZM58.53,45.53,58,45.25a12.33,12.33,0,0,0-1.71,2C54,51.41,51.75,55.59,49.6,59.82c-1.25,2.48-2.28,5.07-3.41,7.61l.37.25c1.7-2.09,3.53-4.08,5.08-6.27a40,40,0,0,0,6.72-14.07A13.38,13.38,0,0,0,58.53,45.53Zm88.81,21.14a12.12,12.12,0,0,0,8.18-6.45c.38-.78,1-1.79.17-2.4-.41-.29-1.6.19-2.23.63C150.53,60.49,149,63.65,147.34,66.67Z" class="cls-1"></path><path d="M131.35,93.89a5.93,5.93,0,0,1,0,5.61,2.8,2.8,0,0,0-.36.56c-.11.32-.3.79-.15,1a1.15,1.15,0,0,0,1,.24,4.72,4.72,0,0,0,3.72-2.72,9.93,9.93,0,0,0,.83-4.28c-.4-4.24,1.45-6.36,4.9-7.74,2.27-.9,4.34-2,5.37-4.37.1-.23.38-.39.65-.65.13,3.18-.74,5.61-3.66,7.07a7.73,7.73,0,0,0-2.13,2.17,1.05,1.05,0,0,0,0,1,1.09,1.09,0,0,0,1,.11c.82-.3,1.6-.7,2.5-1.11-.85,1.92-1.48,3.86-3.57,4.81-.63.29-1,1-1.57,1.54l.22.4,5.63-.78c-1.42.9-3,1.78-4.41,2.85-2.28,1.71-4.41,3.62-6.7,5.32a31.22,31.22,0,0,1-11.57,5,24.59,24.59,0,0,1-10.83-.21c-1-.22-2.11-.35-3.08-.5l4.06-2.59c-2.09-.34-3.86-.63-5.73.41a16.72,16.72,0,0,1-14.63.81c-2.61-1-5.2-2-7.76-3.1a115.06,115.06,0,0,0-19.36-6.43,129.87,129.87,0,0,0-20.35-3.16c-4.4-.31-8.84-.21-13.26-.3a.69.69,0,0,1-.57-.22c1.25-.38,2.51-.74,3.75-1.14,5.37-1.69,10.93-2.17,16.49-2.48a92.72,92.72,0,0,0,13.59-1.66A26.64,26.64,0,0,1,69,89.13c-.07.34-.06.44-.1.47-.65.45-1.51,1-1.14,1.8A3.11,3.11,0,0,0,69.45,93,10.18,10.18,0,0,0,77.51,92a35,35,0,0,1,6.68-3A102.38,102.38,0,0,1,94.4,87.37c.16,0,.34.07.76.18a10.82,10.82,0,0,1-1,.82c-1.36.83-2.76,1.61-4.1,2.47a11.62,11.62,0,0,0-2.29,1.76c-1.42,1.52-1,3.55,1,4.08a26.4,26.4,0,0,0,4.81.45A8.79,8.79,0,0,0,95,97l-.65.85c-1.09,1.27-.83,2.52.79,3a9.86,9.86,0,0,0,10-2.51,9.51,9.51,0,0,0,2.12-2.84,8.32,8.32,0,0,1,4.89-4.27,32.84,32.84,0,0,0,4.46-1.94,4.89,4.89,0,0,0,2.31-3.16,2.8,2.8,0,0,1,.45-.72,4.38,4.38,0,0,1-.8,5.27c-.86.65-1.69,1.33-2.5,2a3.08,3.08,0,0,0-1.19,2.53,2.11,2.11,0,0,0,2.35,2.09,8.39,8.39,0,0,0,6.35-4.27,12.46,12.46,0,0,1,8-6.65,50.56,50.56,0,0,0,5.15-2.12c-1.48,1.38-2.85,2.63-4.18,3.92a7.55,7.55,0,0,0-2.47,5.09c-.21,3.52-2.55,5.42-5.35,7-.73.41-1.4.92-2.1,1.39l.29.52c2.16-.22,3.87-1.56,5.65-2.69A6.19,6.19,0,0,0,131.35,93.89Z" class="cls-1"></path><path d="M16.27,79.28a23.31,23.31,0,0,1-2.74-.53,5.73,5.73,0,0,1-1.37-1c.41-.35.76-.85,1.23-1,1.3-.45,2.63-.8,4-1.12A2.24,2.24,0,0,0,19,74.24c2.59-6,5.14-12.1,7.9-18.06a53.16,53.16,0,0,1,4.46-7.7A14.22,14.22,0,0,1,35.05,45c1.88-1.3,4-.86,4.91.71s.26,5.23-1.06,6.36c-.21.18-.58.16-.87.24a2.19,2.19,0,0,1-.18-.8c.14-.81.39-1.59.5-2.4a3,3,0,0,0-.22-1c-.38.1-.89.08-1.09.32a23,23,0,0,0-3.2,4.24c-3.32,6.77-6.47,13.62-9.68,20.43a6.06,6.06,0,0,0-.17.66c1.65-.59,3.15-1.08,4.61-1.66,2.18-.86,4.33-1.79,6.5-2.66.64-.25,1.41-.68,1.87.18s-.08,1.49-.77,1.84c-3,1.54-6,3-9.06,4.48-1.14.54-2.38.84-3.57,1.27-.36.13-.71.32-1.19.54,4.07,3,3.91,7.33,3.68,11.46a44.84,44.84,0,0,1-6.43,20.43,18.21,18.21,0,0,1-3.28,4c-2.72,2.5-6.32,1.25-7.21-2.31-.76-3.07-.13-6.08.42-9,1.3-7.11,3.71-13.91,6.08-20.71.21-.6.43-1.19.62-1.79A1.54,1.54,0,0,0,16.27,79.28Zm5.28,1.48-.39.11a12.42,12.42,0,0,0-.52,1.18C19,87.14,17.32,92.22,15.76,97.33c-1.25,4.09-2.43,8.21-2.33,12.55a4.38,4.38,0,0,0,.52,1.36c.45-.2,1.08-.27,1.33-.61a33.39,33.39,0,0,0,3.41-5.19,50.2,50.2,0,0,0,4.19-14.39c.38-2.76.7-5.56-.21-8.29A11.31,11.31,0,0,0,21.55,80.76Z" class="cls-1"></path><path d="M25,46.39c.49,0,1,0,1.45,0A14.7,14.7,0,0,0,29,46a9.08,9.08,0,0,0,2.25-.79,4.58,4.58,0,0,0,.75-.62,1.57,1.57,0,0,0,.38-.69c.12-.57.23-1.13.32-1.67s.18-1.11.24-1.68c.06-1.27.11-2.53.14-3.77S33,34.3,33,33a23.46,23.46,0,0,0-.23-3.25,17.91,17.91,0,0,0-.8-3.25,3.8,3.8,0,0,0-.47-.79c-.75-.61-1.48-1.22-2.2-1.84a10.2,10.2,0,0,0-2.58-1.57q-2.43-1.12-4.73-2.4c-1.53-.85-3-1.72-4.45-2.59-.75-.49-1.45-1-2.11-1.45s-1.32-1-2-1.44c.06-.48.12-1,.19-1.41a2.37,2.37,0,0,1,.75-1.35,9.85,9.85,0,0,1,2.95-.46c1,0,2,0,3,.13A18.11,18.11,0,0,1,20.52,14a5.23,5.23,0,0,0,.84,2.73l1.13.13a10.51,10.51,0,0,0,1.12.06,20.57,20.57,0,0,0,3.33,0l3.32-.26a7.86,7.86,0,0,0,2.44-.53,3.6,3.6,0,0,0,.47-1.24,8.36,8.36,0,0,0,.09-1.25c.06-.53.11-1.06.14-1.61s.08-1.08.14-1.61V5.19a4.42,4.42,0,0,0,0-1.45,4.25,4.25,0,0,0-.61-1.44A4,4,0,0,0,29.8.59l-2-.26a14.76,14.76,0,0,0-2-.13Q21.65.26,17.62.13C14.93,0,12.18.07,9.37.2c-.88,0-1.73.12-2.58.23A15.4,15.4,0,0,0,4.22,1c-.32.13-.63.27-.94.42A1.4,1.4,0,0,0,2.62,2c-.18.26-.36.51-.51.75a2.28,2.28,0,0,0-.33.82A29,29,0,0,0,1,6.8a9.34,9.34,0,0,0,0,3.25v.65A18.47,18.47,0,0,0,.8,14.25a15.6,15.6,0,0,0,.51,3.55c.06.22.11.4.14.55a3,3,0,0,1,.05.56,1.3,1.3,0,0,0,.19,1.18,3.92,3.92,0,0,0,1,1c.5.35,1,.69,1.54,1s1.08.64,1.64.95c.88.48,1.78.94,2.72,1.38s1.84.9,2.72,1.38A30,30,0,0,1,14,27.45c.38.26.75.54,1.13.82s.74.56,1.12.82c.56.39,1.11.77,1.64,1.12l1.55,1.05a2.13,2.13,0,0,0,0,.46,1.56,1.56,0,0,1,0,.33v2.16c-.06,1.1-.91,1.75-2.53,2-.56,0-1.14.07-1.73.07s-1.21,0-1.83.06a4.36,4.36,0,0,0-.38-.55.89.89,0,0,1-.18-.56,10.05,10.05,0,0,1-.24-1.71c0-.57-.08-1.14-.14-1.71,0-1-.65-1.59-2-1.9a13.67,13.67,0,0,0-4.78-.53,8.22,8.22,0,0,0-3.7,1A3.53,3.53,0,0,0,.19,32.77a9.58,9.58,0,0,0-.14,1,8.23,8.23,0,0,0,0,1v4.11A30.49,30.49,0,0,0,.28,43a2.43,2.43,0,0,0,.56,1.28A7.86,7.86,0,0,0,2,45.38a2.84,2.84,0,0,0,1,.39c.62.09,1.25.15,1.87.2s1.25.11,1.88.19,1,.08,1.5.1,1,.06,1.49.1c.88,0,1.79.1,2.72.16s1.88.1,2.81.1a.65.65,0,0,0,.14,0" class="cls-2"></path><path d="M147.17,35.49a11.09,11.09,0,0,0,.65,4.3,14.13,14.13,0,0,0,1,2.53,5.64,5.64,0,0,0,2,2.14,9.16,9.16,0,0,0,2.77,1,25,25,0,0,0,3.14.46,68,68,0,0,0,11.61.19q2.53-.12,5.49-.39a13.61,13.61,0,0,0,5.1-1.38A3.67,3.67,0,0,0,181,41.83a10.11,10.11,0,0,0,.19-2v-2a18,18,0,0,0-.09-1.81c-.06-.59-.16-1.19-.28-1.8a1.81,1.81,0,0,0-.56-1.25,6.36,6.36,0,0,0-1-.82,2.23,2.23,0,0,0-1.4-.3c-1.31,0-2.62,0-3.94.07a26.86,26.86,0,0,0-3.84.39,2.63,2.63,0,0,0-1.59.59,3.57,3.57,0,0,0-.38,1.88,1.85,1.85,0,0,1-.65,1.6c-.5,0-1-.06-1.45-.06h-1.83c-1.75-.13-2.69-.81-2.81-2V29a.88.88,0,0,1,.18-.39,6.28,6.28,0,0,1,1.13-.16c.37,0,.75-.06,1.12-.1h1.69c.56,0,1.16,0,1.78-.07l1.17-.13a12.32,12.32,0,0,0,1.27-.2,2.22,2.22,0,0,0,2.06-1.64c.06-.35.11-.71.14-1.08s0-.73,0-1.08c-.07-.62-.15-1.24-.24-1.88s-.17-1.25-.23-1.87a2.44,2.44,0,0,0-1.17-2,4.67,4.67,0,0,0-3.14-.72c-.88,0-1.72.07-2.53.07s-1.66,0-2.53.06h-1.32v-4.6c.07-.21.15-.43.24-.65a5.08,5.08,0,0,1,.33-.66,11.17,11.17,0,0,1,3-.59,24.31,24.31,0,0,1,3,.07q.18.72.33,1.38c.09.43.2.89.32,1.37.07,1.05.75,1.8,2.06,2.24.94-.05,1.86-.07,2.77-.07s1.79,0,2.67-.06c.31-.05.64-.11,1-.2a9.37,9.37,0,0,1,1.08-.2,5.18,5.18,0,0,0,2.81-1.25,1.18,1.18,0,0,1,0-.29,1.17,1.17,0,0,0,.05-.3V10.77c0-1.09,0-2.19.09-3.28V6.83a2.5,2.5,0,0,1,.09-.66A4.07,4.07,0,0,0,181,5.06a2,2,0,0,0-.24-1.12c-.18-.31-.37-.61-.56-.92s-.37-.61-.56-.92A3.78,3.78,0,0,0,176.4.46c-.62-.09-1.25-.15-1.87-.2s-1.28-.06-2-.06q-3.56,0-7.17,0a44.67,44.67,0,0,0-7.07.5,27.58,27.58,0,0,0-3.61.88,10.25,10.25,0,0,0-3,1.55,8,8,0,0,0-2.58,2.75A10.72,10.72,0,0,0,148,9a15.66,15.66,0,0,0-.23,3.29c0,1.11,0,2.2-.05,3.25s-.23,2.25-.33,3.35-.17,2.21-.23,3.35c-.07,3-.07,6,0,8.93C147.23,32.57,147.23,34,147.17,35.49Z" class="cls-2"></path><path d="M96,15.65A7.84,7.84,0,0,0,94.46,15c-12.13-3.82-19.9-5.07-31.24,1.15-1.18.72.24,1.52,1,2,11.57,6.84,28.93,2.7,33.19-.68C97.89,17,97.06,16.26,96,15.65Z" class="cls-3"></path><path d="M92.71,21l-.07,0c-7.17.61-14.53,1.91-23.34-.57a24.6,24.6,0,0,1-3.56-1.27A1.26,1.26,0,0,0,64,20.44v0c.69,5.29-2.36,19.89,3.19,22.52,10.53,4.51,24.51,3.87,29.52-1.54,4.09-5.29,2.42-9.88,2.49-17.44a1.25,1.25,0,0,0-1.09-1.27C96.33,22.55,94.73,20.39,92.71,21Z" class="cls-3"></path><path d="M110.28,19.5a1.14,1.14,0,0,0,.42-2.06,3.42,3.42,0,0,0-1.3-.7,6.54,6.54,0,0,0-2.82-.07,2.42,2.42,0,0,0-.36.1.83.83,0,0,0,.41.22c.56.12,1.13.2,1.68.36a10.81,10.81,0,0,1,1.47.55c.14.06.32.26.31.38a.63.63,0,0,1-.33.39,5,5,0,0,1-1,.22c-1.5.21-3,.2-4.25,1.29a6.11,6.11,0,0,0,0-1.05,1.44,1.44,0,0,1,.51-1.48,2.3,2.3,0,0,0,.33-.52l-.1-.11c-.27.1-.54.18-.8.3l-.46.22c-.57.27-1.13.55-1.7.79l-.16.05a32.9,32.9,0,0,1-7.63,1.95,96.26,96.26,0,0,1-12,1.09,49.15,49.15,0,0,1-10.69-.85,27.63,27.63,0,0,1-7.79-2.71,2.1,2.1,0,0,1-1.33-1.62.9.9,0,0,0-.13,1,14.76,14.76,0,0,0,.85,1.22c.07.09.17.18.18.28v1.37a3.88,3.88,0,0,0-2.43-.9A9.68,9.68,0,0,1,60,19a7.55,7.55,0,0,1-1.54-.52c-.41-.21-.4-.56,0-.77a7.63,7.63,0,0,1,1.38-.51c.49-.13,1-.2,1.51-.31a1.73,1.73,0,0,0,.36-.18v-.16l-1.5-.31a4.46,4.46,0,0,0,1.74-.6,1.82,1.82,0,0,0-.58-.14,12.73,12.73,0,0,0-3.68.42,5.81,5.81,0,0,0-2.08.88,1.47,1.47,0,0,0-.24,2.36,3.85,3.85,0,0,0,.69.59,6.23,6.23,0,0,0,5,.59c.12,0,.22-.18.33-.19a2,2,0,0,1,1.92,1.18,8.49,8.49,0,0,1,.4,1.3c.13.54.21,1.09.32,1.7a2.31,2.31,0,0,0,.12-.27c.06-.19.09-.38.13-.57a4.94,4.94,0,0,0-.19-2.7.69.69,0,0,1-.09-.3c0-.43.11-.87.17-1.31v0a1.1,1.1,0,0,0,0-.18l.28.12,1.2.47a26.52,26.52,0,0,0,2.53.93,47.81,47.81,0,0,0,12,1.68,73.65,73.65,0,0,0,14.3-.89,39.81,39.81,0,0,0,8.3-2.18c.4-.16.78-.33,1.16-.5l.21-.09a6.19,6.19,0,0,0-.16,1.58,1.7,1.7,0,0,1,0,.72,2.2,2.2,0,0,1-.25.57,3.56,3.56,0,0,0-.27,2.73,1.77,1.77,0,0,0,.15.31h.11c.11-.27.21-.54.35-.87.05.5.11.95.16,1.39l.09-.09a.72.72,0,0,0,.17-.27,5.71,5.71,0,0,0,.3-2.59,1.05,1.05,0,0,1,.34-1c.17-.15.33-.3.51-.43a5.06,5.06,0,0,1,2.43-.69A13.6,13.6,0,0,0,110.28,19.5ZM56,18.52a.7.7,0,0,1,.2-1,4.11,4.11,0,0,1,.89-.55,9.32,9.32,0,0,1,1.05-.37,1.57,1.57,0,0,0,.29,3A3.12,3.12,0,0,1,56,18.52Z" class="cls-2"></path><path d="M72.88,13.08a2.35,2.35,0,0,1-1.44.05.62.62,0,0,1,.53-.58c.41-.09.83-.13,1.25-.2s.8-.13,1.2-.23c.13,0,.23-.21.34-.32-.14-.06-.28-.2-.41-.19a10.87,10.87,0,0,0-2,.16,2.43,2.43,0,0,0-1,.66c-.3.28-.26.55.07.8a1.92,1.92,0,0,0,.77.38,4.5,4.5,0,0,0,2.93-.39,1.8,1.8,0,0,0,1.17-1.77A3,3,0,0,1,77.9,8.76,6.49,6.49,0,0,1,80.51,8c1.36-.12,2.73-.22,4.1-.26a10.18,10.18,0,0,1,4.53.74,3.9,3.9,0,0,1,2.37,2.89,2.43,2.43,0,0,0,.63,1.14,3.48,3.48,0,0,0,3.32.85,2.52,2.52,0,0,0,1.24-.59c-.79-.07-1.47-.15-2.15-.19a2.26,2.26,0,0,1-2.07-1.44c-.17-.39-.33-.8-.49-1.2a3.8,3.8,0,0,0-1-1.52.07.07,0,0,1,0,0l.33-.05a3.18,3.18,0,0,0-1.56-1.55,9.27,9.27,0,0,0-1.44-.46,21.17,21.17,0,0,0-8.09,0,8.84,8.84,0,0,0-3.13,1.08A2.25,2.25,0,0,0,75.93,9l.69-.61c-.21.34-.47.62-.65.95a6.22,6.22,0,0,0-.48,1.09c-.14.46-.23.93-.36,1.39a.61.61,0,0,1-.24.36C74.23,12.51,73.57,12.82,72.88,13.08Zm15.38-5.8a19.39,19.39,0,0,0-5.69-.16A14.74,14.74,0,0,0,77,8.23C78.72,6.85,85.82,6.35,88.26,7.28Z" class="cls-2"></path><path d="M103.62,38.83c-.12.15-.24.29-.35.44a10.74,10.74,0,0,1-4.91,4,28.91,28.91,0,0,1-7.14,1.87,49.7,49.7,0,0,1-15.68-.47c-1.83-.33-3.61-.87-5.42-1.3A7.29,7.29,0,0,0,69,43.2a.94.94,0,0,0-.4.15,3.3,3.3,0,0,0,.22.3.08.08,0,0,0,0,0,1.13,1.13,0,0,0,.45.26l1.82.57c.68.2,1.36.4,2,.55a51.25,51.25,0,0,0,11,1.25,43.18,43.18,0,0,0,10.93-1,20.65,20.65,0,0,0,3.33-1.11A16.48,16.48,0,0,0,102,42a5,5,0,0,0,1.7-2.86,1,1,0,0,0,0-.3l0,0Z" class="cls-2"></path><path d="M64.38,38.27a18.12,18.12,0,0,1-.16-5.55c.22-2.66.6-5.32,0-8l0-.15-.21.05h-.24a5.49,5.49,0,0,0-.69-3c0,.75-.09,1.39-.14,2a5,5,0,0,0,0,.94c.07.65.42.84,1,.61l.07,0a19.18,19.18,0,0,0-.4,4.14c0,.06,0,.12,0,.18,0,1.25-.07,2.5-.11,3.75,0,1.08-.09,2.17-.09,3.26a9,9,0,0,0,1,4.19c.08.15.16.3.25.45a4.76,4.76,0,0,0,3.13,2.05H68l.05-.08c-.19-.14-.37-.3-.56-.43A7,7,0,0,1,64.38,38.27Z" class="cls-2"></path><path d="M112.52,16.58a5.71,5.71,0,0,0-6.07-.51,2,2,0,0,0-.24.16l0,.11,1.67.05c.65,0,1.31,0,2,.05a3.43,3.43,0,0,1,2,.81,1,1,0,0,1,.08,1.52,2.41,2.41,0,0,1-.74.58,11.85,11.85,0,0,1-1.81.65c-1,.27-2.12.48-3.18.72a4,4,0,0,0-.4.15V21a3.86,3.86,0,0,0,.49.09c.83,0,1.66.05,2.49,0a6,6,0,0,0,3.88-1.67A1.68,1.68,0,0,0,112.52,16.58Z" class="cls-2"></path><path d="M95.09,11.22a19.38,19.38,0,0,1,4.54.86,9.63,9.63,0,0,1,5.69,4.45c.06.1.14.19.21.29l.08,0a2.58,2.58,0,0,0,0-.29,6,6,0,0,0-2.78-4,14.17,14.17,0,0,0-4.73-1.69,17.41,17.41,0,0,0-4.67-.36,4.7,4.7,0,0,0-.51.12v.11a1.1,1.1,0,0,0,.26.14A15,15,0,0,0,95.09,11.22Z" class="cls-2"></path><path d="M63,15.5a6.18,6.18,0,0,1,2.84-2.72A18.33,18.33,0,0,1,72,11.07l2.67-.37a2.3,2.3,0,0,0,.49-.2v-.13a2.66,2.66,0,0,0-.61-.18,19.88,19.88,0,0,0-2.44.05A19.34,19.34,0,0,0,65.58,12a6,6,0,0,0-2.15,1.65,2.63,2.63,0,0,0-.55,2Z" class="cls-2"></path><path d="M79.55,9.92a20.09,20.09,0,0,0-2.18.32,2.53,2.53,0,0,0-.45.19l0,.11h.71c2.49,0,5,.06,7.47.11,1.44,0,2.87.11,4.31.16a1,1,0,0,0,.77-.3,3.1,3.1,0,0,0-1.44-.4A53.46,53.46,0,0,0,79.55,9.92Z" class="cls-2"></path><path d="M104.36,26.32h-.14c0,.33-.13.65-.15,1-.08,1.88-.15,3.76-.23,5.64,0,1.14-.1,2.27-.14,3.41,0,.63,0,1.26,0,1.89a1,1,0,0,0,.08.33l.06.17h.1a1.21,1.21,0,0,0,.18-.28,5.27,5.27,0,0,0,.25-1.08l0-.52c.07-1.19.13-2.39.17-3.59a45.32,45.32,0,0,0-.1-6.38A4,4,0,0,0,104.36,26.32Z" class="cls-2"></path><path d="M95.15,12.22a10,10,0,0,1,1.24.22,2.28,2.28,0,0,1,.56.36.49.49,0,0,0,0-.87,3.1,3.1,0,0,0-1.18-.48c-1-.13-1.91-.17-2.89-.25a3.45,3.45,0,0,0,.51.42A4.48,4.48,0,0,0,95.15,12.22Z" class="cls-2"></path><path d="M105.6,18.29a.58.58,0,0,0-.24.41,5.66,5.66,0,0,1,.58-.2l.1-.8A1.8,1.8,0,0,1,105.6,18.29Z" class="cls-4"></path><path d="M84.63,8.59c-1.48,0-2.94.16-4,.26a6.34,6.34,0,0,0-1.31.25l.23,0C80.76,9,82,9,83.18,9c.73,0,1.45,0,2.16,0a1.56,1.56,0,0,0,.16-.28l.06-.14h-.93Z" class="cls-2"></path><path d="M145,5.39c.06-.84.11-1.65.14-2.44A2.86,2.86,0,0,0,143.7.66a2.86,2.86,0,0,0-.51-.13l-.71-.14a29.54,29.54,0,0,0-3.37-.32c-1.12,0-2.25,0-3.37,0a3.28,3.28,0,0,0-3,1.51,4.81,4.81,0,0,0-.85,1.9c-.12.66-.24,1.31-.37,2-.13,1-.2,2-.23,3.09s-.11,2.08-.24,3.08a1.37,1.37,0,0,1-.05.4,2.43,2.43,0,0,0,0,.52c-1.13-1-2.22-2-3.28-2.85a35.29,35.29,0,0,1-3-2.86c-.94-1-1.81-2-2.62-3.05S120.4,1.71,119.53.66L119,.53c-.18-.05-.4-.09-.65-.14A26,26,0,0,0,114.65,0c-1.18,0-2.4,0-3.65.1a2.79,2.79,0,0,0-2.34,1.18c-.13.27-.27.54-.42.82s-.3.59-.43.89c-.12.79-.25,1.59-.37,2.4s-.25,1.61-.38,2.39c-.12,1.27-.23,2.54-.32,3.81s-.23,2.4-.4,3.59a7.3,7.3,0,0,1,2.82-.62A6.53,6.53,0,0,1,113,15.9a2.7,2.7,0,0,1,1.2,1.94,2.71,2.71,0,0,1-.89,2.13,6.87,6.87,0,0,1-4.4,1.91c-.34,0-.7,0-1.14,0h-1.43a3,3,0,0,1-.52-.08l-.12,0-.1,0a.45.45,0,0,0,0,.11,6.38,6.38,0,0,1-.24,2.64v.09c0,.75,0,1.48,0,2.22a45.69,45.69,0,0,1,.1,6.47c0,1.39-.11,2.53-.17,3.6V37c0,1.87.14,3.76.29,5.65.19,1.53,1.21,2.56,3.08,3.08a17,17,0,0,0,2,.53c.69.13,1.4.24,2.14.33a5.81,5.81,0,0,0,2-.1q1-.23,2-.36c1.55-.26,2.35-.94,2.42-2a.78.78,0,0,1,0-.26.8.8,0,0,0,0-.26c.12-1.4.23-2.82.33-4.24s.2-2.83.33-4.23c.14-1.1.28-2.18.39-3.25a32,32,0,0,0,.17-3.25c.12-1.84.17-3.66.14-5.46s0-3.61,0-5.45V16h.19a2.21,2.21,0,0,1,.47.39c.56.66,1.09,1.31,1.59,2a13.69,13.69,0,0,0,1.78,1.91,23.31,23.31,0,0,1,2.39,2.49c.72.88,1.45,1.75,2.2,2.63a1.16,1.16,0,0,1,.28.79c.06,2.75.06,5.48,0,8.17a71.06,71.06,0,0,0,.28,8.11c.13,1.62,1.16,2.72,3.1,3.28a16.55,16.55,0,0,0,2.1.53c.72.13,1.46.24,2.21.33a8.53,8.53,0,0,0,2.53-.13c.81-.18,1.62-.38,2.43-.59a1.63,1.63,0,0,0,1.22-1.12c.06-.35.11-.68.14-1s.08-.61.14-.92a18.17,18.17,0,0,0,.14-2.92A19.47,19.47,0,0,1,144,37c.25-1.53.44-3.06.57-4.6s.24-3.06.37-4.59c.06-1.88.08-3.76.05-5.62s-.05-3.71-.05-5.55c0-1.66,0-3.31,0-4.95s0-3.3,0-5a4.87,4.87,0,0,1,0-.66A4.69,4.69,0,0,1,145,5.39Z" class="cls-2"></path><path d="M108,18.14c-.3-.08-.62-.14-1-.21l-.61-.12a1.9,1.9,0,0,1-.4-.14h0v0l-.1.8a13.76,13.76,0,0,1,2-.36Z" class="cls-2"></path><path d="M55,40.78a8.89,8.89,0,0,1,2.19-1.12A5.41,5.41,0,0,1,59,39.35a9,9,0,0,0,0-1.46,5.64,5.64,0,0,1,.14-1.58,7.44,7.44,0,0,0,.38-2.85,15.26,15.26,0,0,1,.09-2.86,3.37,3.37,0,0,0,.1-.75v-.76c.12-.44.21-.85.28-1.25a8.22,8.22,0,0,0,.09-1.24c.09-1.76.13-3.5.16-5.23a9.88,9.88,0,0,1-1.18.08,6,6,0,0,1-3.43-1,4.48,4.48,0,0,1-.84-.72,2.38,2.38,0,0,1-.7-1.88,2.44,2.44,0,0,1,1-1.73,7.05,7.05,0,0,1,2.37-1,13.86,13.86,0,0,1,2.79-.42q0-1.69.06-3.39v-1a5.87,5.87,0,0,1,1.41-.13c.93,0,2.12-.07,3.56-.07l2.89,0A24,24,0,0,1,72,9.4a12.84,12.84,0,0,1,1.33-.06h1.22a2.09,2.09,0,0,1,.47.08A1.17,1.17,0,0,0,75,9.32l.06-.41a3,3,0,0,1,1.51-2.25A9.74,9.74,0,0,1,80,5.46a23.84,23.84,0,0,1,4.22-.39c.65,0,1.29,0,1.93.09a17,17,0,0,0,0-1.75A5.18,5.18,0,0,0,86,1.9,1.92,1.92,0,0,0,84.8.72,2.47,2.47,0,0,0,83.72.43c-.41,0-.83,0-1.26,0-2.38,0-4.75-.1-7.13-.19S70.59,0,68.21,0q-3.84,0-7.59,0c-2.5,0-5,0-7.49,0h-2Q50,.13,48.91.16c-.75,0-1.5.08-2.25.17L43,.62q-1.78.16-3.66.3a4.47,4.47,0,0,0-1.68.39c-.44.22-.88.46-1.31.73a.91.91,0,0,0-.43.39c-.09.18-.17.33-.23.46a1.19,1.19,0,0,0-.19.59V6.34c0,.76,0,1.54.1,2.33a2.32,2.32,0,0,0,.84,2,6.27,6.27,0,0,0,2.9.46c.94,0,1.91-.07,2.91-.07s2,0,3.09-.06v1.31c-.13.74-.23,1.48-.33,2.2s-.17,1.46-.23,2.2c-.19,1.27-.36,2.55-.52,3.84s-.26,2.59-.33,3.91c-.12,3-.18,5.94-.18,8.9,0,.3,0,.61,0,.91l.6,9.17a4.19,4.19,0,0,0,2.75,2.16,14.28,14.28,0,0,0,2.93.67A19.43,19.43,0,0,1,55,40.78Z" class="cls-2"></path></g></g></svg>